<svg width="40" height="41" viewBox="0 0 40 41" fill="none" xmlns="http://www.w3.org/2000/svg">
<path fill-rule="evenodd" clip-rule="evenodd" d="M19.4213 0.62561L19.3438 0.625723V0.62561C14.0519 0.62561 9.22237 2.21925 5.70642 5.14914C2.25656 8.02397 0.094541 12.1681 0.00479907 17.2793C0.00286367 17.3896 0.00189209 17.5002 0.00189209 17.6113V21.5038C0.00189209 28.4052 2.15297 33.2136 5.699 36.2876C9.12797 39.26 13.7915 40.5497 18.8785 40.6232V40.6267H19.4213H20.6619L20.7578 40.6266H21.128V40.6234C26.2147 40.5497 30.8775 39.2603 34.3061 36.2978C37.8521 33.2337 40.0038 28.4444 40.0038 21.5803V21.5197L40.0038 21.5038L40.0038 17.6878L40.0038 17.6113C40.0038 12.3475 37.8235 8.08597 34.2992 5.14914C30.8868 2.3055 26.237 0.720596 21.128 0.629747V0.62561H20.6619H19.4213ZM39.0038 21.5038L39.0038 21.5195C39.0005 28.1952 36.9264 32.6925 33.6431 35.5214C30.3444 38.3637 25.7492 39.5879 20.588 39.5503L20.5844 39.5503H19.3438C14.2211 39.5503 9.64376 38.3078 6.35342 35.4646C3.07609 32.6328 1.00189 28.1489 1.00189 21.5038V17.6113C1.00189 17.1497 1.01959 16.6965 1.05436 16.252C1.39335 11.9181 3.35511 8.41122 6.35576 5.91781C9.55537 3.25908 13.9591 1.73572 18.8785 1.63135V1.70209H19.4213H20.6619C25.7602 1.70209 30.3516 3.23769 33.6591 5.99385C36.9582 8.74307 39.0038 12.7244 39.0038 17.6878L39.0038 21.5038ZM24.7716 14.8637V11.9635C24.6165 11.9253 24.4614 11.9062 24.3063 11.8871C24.1513 11.8681 23.9962 11.849 23.8411 11.8108H22.1353C21.2048 11.8871 20.3519 12.0398 19.654 12.574C18.8011 13.1846 18.3359 14.0242 18.1808 15.0164C18.1032 15.398 18.1032 15.8559 18.1032 16.2375V18.1456V18.3746H15.3119V21.5801H18.1032V29.7467H21.5149V21.6565H24.3063C24.3839 20.5879 24.5389 19.5194 24.694 18.4509H24.0737H21.4374V16.1612C21.5149 15.169 22.0577 14.8637 22.8331 14.8637H24.5389H24.7716Z" fill="white"/>
</svg>
