<svg width="40" height="41" viewBox="0 0 40 41" fill="none" xmlns="http://www.w3.org/2000/svg">
<path fill-rule="evenodd" clip-rule="evenodd" d="M19.4156 0.625L19.3381 0.625112V0.625C14.0463 0.625 9.21671 2.21869 5.70077 5.14867C2.2506 8.02385 0.0885106 12.1686 -0.000870581 17.2806C-0.00279008 17.3904 -0.00375366 17.5006 -0.00375366 17.6112V21.5038C-0.00375366 28.4054 2.14732 33.214 5.69335 36.288C9.12232 39.2606 13.7858 40.5503 18.8729 40.6238V40.6274H19.4156H20.6563L20.771 40.6272H21.1224V40.624C26.209 40.5504 30.8718 39.2609 34.3004 36.2983C37.8465 33.2341 39.9981 28.4447 39.9981 21.5804V21.5038V17.6878V17.6112C39.9981 12.3472 37.8178 8.08559 34.2936 5.14867C30.8811 2.30494 26.2313 0.719986 21.1224 0.629137V0.625H20.6563H19.4156ZM38.9981 17.6878V21.5038C38.9981 28.1884 36.9233 32.6906 33.6374 35.5219C30.3387 38.3642 25.7435 39.5885 20.5824 39.5509L20.5787 39.5509H19.3381C14.2154 39.5509 9.63812 38.3083 6.34778 35.4651C3.07044 32.6332 0.996246 28.1491 0.996246 21.5038V17.6112C0.996246 17.1483 1.01404 16.694 1.04898 16.2484C1.38876 11.9159 3.35027 8.41015 6.35011 5.91734C9.54972 3.25852 13.9534 1.73511 18.8729 1.63074V1.70154H19.4156H20.6563C25.7546 1.70154 30.3459 3.23719 33.6534 5.99343C36.9525 8.74274 38.9981 12.7242 38.9981 17.6878ZM26.8593 13.566C27.7122 14.3293 28.1775 15.3215 28.255 16.39C28.4101 17.6876 28.5652 23.8699 28.1775 25.3201C27.6347 27.1519 26.3941 28.2968 24.4556 28.6021C22.9824 28.8311 16.4692 28.8311 15.151 28.5258C13.2125 28.0678 12.0495 26.8466 11.7393 24.9385C11.5067 23.5646 11.4292 17.0007 11.8168 15.6268C12.3596 13.795 13.6002 12.7264 15.4612 12.4211C17.167 12.1158 21.8193 12.1922 23.7578 12.3448C24.9208 12.4211 26.0064 12.7264 26.8593 13.566ZM23.9904 27.1519C25.5412 26.9993 26.4716 26.0834 26.7042 24.6332C26.9368 23.183 26.9368 17.9166 26.7818 16.4664C26.6267 14.9399 25.6962 14.024 24.223 13.795C22.7498 13.6423 17.3996 13.6423 15.9264 13.795C14.4532 13.9476 13.5227 14.8635 13.2901 16.3137C13.0575 17.8402 13.135 23.5646 13.2901 24.7095C13.4452 25.9307 14.143 26.694 15.3061 26.9993C16.5467 27.3809 22.6722 27.3046 23.9904 27.1519ZM15.6162 20.5116C15.6162 18.1455 17.5547 16.2374 19.9584 16.2374C22.3621 16.2374 24.3005 18.1455 24.3005 20.5116C24.3005 22.8777 22.3621 24.7858 19.9584 24.7858C17.5547 24.7858 15.6162 22.8777 15.6162 20.5116ZM17.167 20.5116C17.167 22.0381 18.4076 23.2593 19.9584 23.2593C21.5092 23.2593 22.7498 22.0381 22.7498 20.5116C22.7498 18.9851 21.5092 17.7639 19.9584 17.7639C18.4076 17.7639 17.167 18.9851 17.167 20.5116ZM24.4556 17.077C24.9984 17.077 25.4636 16.619 25.4636 16.0847C25.4636 15.5505 25.0759 15.0925 24.4556 15.0925C23.9128 15.0925 23.4476 15.5505 23.4476 16.0847C23.4476 16.619 23.9128 17.077 24.4556 17.077Z" fill="white"/>
</svg>
