<svg width="40" height="41" viewBox="0 0 40 41" fill="none" xmlns="http://www.w3.org/2000/svg">
<path fill-rule="evenodd" clip-rule="evenodd" d="M19.4194 0.625L19.3419 0.625112V0.625C14.05 0.625 9.22046 2.21869 5.70452 5.14867C2.25443 8.02379 0.0923527 12.1685 0.00288857 17.2803C0.000965423 17.3902 0 17.5005 0 17.6112V21.5038C0 28.4054 2.15108 33.214 5.6971 36.288C9.12607 39.2606 13.7896 40.5503 18.8766 40.6238V40.6274H19.4194H20.66L20.7747 40.6272H21.1261V40.624C26.2128 40.5504 30.8756 39.261 34.3042 36.2983C37.8502 33.2341 40.0019 28.4447 40.0019 21.5804V17.6878L40.0019 17.6608V17.6112C40.0019 12.3472 37.8216 8.08559 34.2973 5.14867C30.8849 2.30493 26.235 0.719978 21.1261 0.629136V0.625H20.66H20.66H19.4194ZM18.8766 1.70154V1.63074C13.9572 1.7351 9.55348 3.25851 6.35387 5.91734C3.35403 8.41015 1.39251 11.9159 1.05274 16.2484C1.01779 16.694 1 17.1483 1 17.6112V21.5038C1 28.1491 3.0742 32.6332 6.35153 35.4651C9.64187 38.3083 14.2192 39.5509 19.3419 39.5509H20.5825L20.5861 39.5509C25.7473 39.5885 30.3425 38.3642 33.6412 35.5219C36.927 32.6906 39.0019 28.1884 39.0019 21.5038V17.6615C38.9947 12.7102 36.9505 8.73789 33.6572 5.99343C30.3497 3.23719 25.7583 1.70154 20.66 1.70154H19.4194H18.8766ZM26.1651 17.3823L26.2427 17.306C26.2569 17.2943 26.271 17.2828 26.285 17.2713C26.7313 16.9056 27.098 16.6051 27.1731 16.1611C27.2507 16.0848 27.3088 16.0084 27.367 15.9321C27.4251 15.8558 27.4833 15.7795 27.5608 15.7031C27.0181 15.9321 26.3978 16.0848 25.7774 16.1611C26.4753 15.7031 26.9405 15.1688 27.1731 14.4056H27.0956C26.5528 14.7109 25.855 14.9399 25.2347 15.0925C25.1571 15.0925 25.1571 15.0925 25.0796 15.0162C24.3042 14.2529 23.3738 13.9476 22.2882 14.1003C21.3578 14.2529 20.6599 14.7872 20.1171 15.5505C19.7294 16.1611 19.5744 16.848 19.6519 17.6113C19.7294 17.7639 19.7294 17.8402 19.7294 17.9929C17.0931 17.8402 14.8445 16.6954 13.1387 14.7109C12.751 15.3978 12.6734 16.1611 12.8285 17.0007C12.9836 17.7639 13.4488 18.4508 14.1467 18.9088C13.6814 18.9088 13.2162 18.7561 12.751 18.5272C12.751 19.1378 12.9061 19.672 13.2162 20.2063C13.6814 20.9696 14.3793 21.4275 15.3098 21.6565H15.2322C14.767 21.8091 14.3018 21.8091 13.8365 21.7328C14.1467 22.725 15.1547 23.8699 16.8605 23.9463C16.3953 24.3279 15.8525 24.6332 15.3098 24.8622C14.3018 25.3201 13.2162 25.4728 12.1307 25.3201L12.2082 25.3964C13.759 26.3887 15.4648 26.8466 17.3258 26.7703C17.5261 26.7456 17.7183 26.7289 17.9077 26.7125C18.3047 26.678 18.6891 26.6447 19.1091 26.5413C20.815 26.1597 22.2882 25.3201 23.5288 24.0989C24.2267 23.3356 24.7695 22.4961 25.2347 21.5802C25.6999 20.6643 25.9325 19.7484 26.0876 18.7561C26.1651 18.2982 26.1651 17.8403 26.1651 17.3823V17.3823Z" fill="white"/>
</svg>
