<svg width="40" height="41" viewBox="0 0 40 41" fill="none" xmlns="http://www.w3.org/2000/svg">
<path fill-rule="evenodd" clip-rule="evenodd" d="M19.4175 0.625L19.34 0.625112V0.625C14.0481 0.625 9.21857 2.21869 5.70263 5.14867C2.25253 8.02379 0.0904606 12.1685 0.00099648 17.2803C-0.000926667 17.3902 -0.00189209 17.5005 -0.00189209 17.6112V21.5038C-0.00189209 28.4054 2.14919 33.214 5.69521 36.288C9.12418 39.2606 13.7877 40.5503 18.8748 40.6238V40.6274H19.4175H20.6581L20.7729 40.6272H21.1242V40.624C26.2109 40.5504 30.8737 39.261 34.3023 36.2983C37.8483 33.2341 40 28.4447 40 21.5804V17.6878L40 17.6608V17.6112C40 12.3472 37.8197 8.08559 34.2955 5.14867C30.883 2.30494 26.2332 0.719984 21.1242 0.629136V0.625H20.6581H19.4175ZM18.8748 1.70154V1.63074C13.9553 1.7351 9.55159 3.25851 6.35198 5.91734C3.35214 8.41015 1.39062 11.9159 1.05085 16.2484C1.0159 16.694 0.998108 17.1483 0.998108 17.6112V21.5038C0.998108 28.1491 3.0723 32.6332 6.34964 35.4651C9.63998 38.3083 14.2173 39.5509 19.34 39.5509H20.5806L20.5842 39.5509C25.7454 39.5885 30.3406 38.3642 33.6393 35.5219C36.9251 32.6906 39 28.1884 39 21.5038V17.6615C38.9928 12.7102 36.9486 8.73789 33.6553 5.99343C30.3478 3.23719 25.7565 1.70154 20.6581 1.70154H19.4175H18.8748ZM28.567 25.3201C29.3424 23.7172 29.3424 17.4586 28.6445 15.7794C28.4119 15.1688 27.9467 14.7109 27.3264 14.4056C26.1633 14.0239 16.3934 14.0239 13.2144 14.3292C12.594 14.3292 12.0513 14.6345 11.6636 15.0925C10.5005 16.4663 10.6556 23.3356 11.2759 25.0148C11.5085 25.7017 11.9737 26.1596 12.6716 26.3886C14.2224 26.9229 26.3959 26.9229 27.559 26.3123C28.0242 26.0833 28.3344 25.778 28.567 25.3201ZM21.9722 19.5213C22.4613 19.7742 22.9528 20.0284 23.4494 20.2826C22.4802 20.7787 21.5303 21.2749 20.5804 21.771C19.6306 22.2671 18.6808 22.7632 17.7116 23.2593V17.3822C19.1534 18.0635 20.5524 18.787 21.9722 19.5213Z" fill="white"/>
</svg>
